<svg xmlns="http://www.w3.org/2000/svg" viewBox="0 0 201.15 144.71"><defs><style>.cls-1{fill:#8bb93f;}</style></defs><title>WAVE</title><g id="Layer_2" data-name="Layer 2"><g id="Layer_1-2" data-name="Layer 1"><path class="cls-1" d="M124.27,79.6h34.48c-.12,1-.26,1.9-.43,2.83H121.68l-1.47-16.6-10.29,48.73-9.3-72.08L89.05,113.76,77.86,61.56,71.4,82.8H14.69a7.44,7.44,0,1,1,.1-2.83H69.3l9-29.71L88.66,98.45,101,22.81l9.65,74.84,10.76-51Z"/><path class="cls-1" d="M173.84,79.6c-.09,1-.21,1.89-.34,2.83H161.18c.16-.93.3-1.87.41-2.83Z"/><path class="cls-1" d="M201.15,81.14a7.44,7.44,0,0,1-14.77,1.29h-10c.13-.94.24-1.88.33-2.83h9.76a7.44,7.44,0,0,1,14.72,1.54Z"/><path class="cls-1" d="M174.21,72.36c0,2.43-.13,4.84-.37,7.24-.09,1-.21,1.89-.34,2.83A72.35,72.35,0,0,1,111.88,144c-2.27.32-4.58.52-6.87.62-1,0-2.07.07-3.16.07h-.18c-1.59,0-3-.05-4.42-.14h0c-1.17-.07-2.34-.18-3.5-.31h-.14c-17.2-2.62-27.69-14.38-27.08-21,.14-1.56.44-4.8,2.93-6.54A6.15,6.15,0,0,1,73,115.62c4.87,0,10.82,4.44,11.48,4.94s1.23,1,1.82,1.54A6,6,0,0,1,89.92,119a4.66,4.66,0,0,1,1.18-.15c2.74,0,5.35,2.39,7.16,4.56a4.62,4.62,0,0,1,2-1.42,4.18,4.18,0,0,1,1.41-.24c3.67,0,7.11,4.5,8.08,5.88a20.38,20.38,0,0,1,2.15,4,59.91,59.91,0,0,0,49.26-49.25c.16-.93.3-1.87.41-2.83a59.43,59.43,0,0,0,.42-6c0-.41,0-.82,0-1.23,0-32.31-26.26-59.29-58.53-60.15h-.11c-2-.2-4.12-.3-6.15-.3-34.6,0-66,27-67.74,61.54V72.36a72.36,72.36,0,1,1,144.71,0Z"/></g></g></svg>